<svg xmlns="http://www.w3.org/2000/svg" viewBox="0 0 64 64" role="img" aria-label="Email Verifier">
  <defs>
    <linearGradient id="g" x1="0%" y1="0%" x2="100%" y2="100%">
      <stop offset="0%" stop-color="#6366f1"/>
      <stop offset="100%" stop-color="#a855f7"/>
    </linearGradient>
  </defs>
  <rect width="64" height="64" rx="14" fill="url(#g)"/>
  <path fill="#fff" d="M14 22c0-2.2 1.8-4 4-4h28c2.2 0 4 1.8 4 4v20c0 2.2-1.8 4-4 4H18c-2.2 0-4-1.8-4-4V22zm4 0 14 11 14-11H18zm-2 2.8V42h28V24.8l-13.2 10.4a2 2 0 0 1-2.4 0L16 24.8z"/>
  <circle cx="46" cy="46" r="12" fill="#22c55e"/>
  <path fill="#fff" stroke="#fff" stroke-width="1.5" stroke-linecap="round" stroke-linejoin="round" d="M40.5 46.2l3.8 3.8 7.5-7.8"/>
</svg>
